<svg xmlns="http://www.w3.org/2000/svg" viewBox="0 0 283.46 283.46"><defs><style>.cls-1{fill:#ef3e39;}.cls-2{fill:#f68e77;}.cls-3{fill:#f26b57;}</style></defs><g id="Assets"><polygon class="cls-1" points="143.73 141.78 62.42 188.72 143.73 235.67 143.73 141.78"/><polygon class="cls-2" points="143.73 141.78 143.73 235.67 225.04 188.72 225.04 94.83 143.73 141.78"/><polygon class="cls-1" points="62.42 94.83 62.42 167.8 72.71 161.86 72.71 106.7 120.47 134.28 130.76 128.34 77.86 97.8 138.59 62.73 138.59 123.82 148.88 117.88 148.88 62.73 196.64 90.31 206.93 84.37 143.73 47.88 62.42 94.83"/><polygon class="cls-3" points="143.73 47.88 206.93 84.37 201.78 87.34 144.13 54.06 73.11 95.06 130.76 128.34 125.62 131.31 62.42 94.83 143.73 47.88"/></g></svg>