<?xml version="1.0" encoding="utf-8"?>
<!-- Generator: Adobe Illustrator 24.1.2, SVG Export Plug-In . SVG Version: 6.00 Build 0)  -->
<svg version="1.1" id="Layer_1" xmlns="http://www.w3.org/2000/svg" xmlns:xlink="http://www.w3.org/1999/xlink" x="0px" y="0px"
	 viewBox="0 0 283.5 283.5" style="enable-background:new 0 0 283.5 283.5;" xml:space="preserve">
<style type="text/css">
	.st0{fill:#DCDBD7;}
</style>
<g id="Assets">
	<path class="st0" d="M145.9,108.1c5.6-2,11.7,0.9,13.7,6.5c2,5.6-0.9,11.7-6.5,13.7c-5.6,2-11.7-0.9-13.7-6.5c0,0,0,0,0,0
		C137.4,116.2,140.3,110.1,145.9,108.1z M186.6,104.4c-0.6-1.8-1.7-4-3.4-4.8c-1.3-0.5-2.7-0.4-3.9,0.3l0,0h-0.1
		c-3.9,1.4-7.5,3.4-5.1,10.6c0.1,0.3,0.2,0.7,0.3,1c2.3,6.4,4.7,7.7,10.4,5.8c1.6-0.5,2.9-1.6,3.7-3.1c0.7-1.7,0.3-3.7-0.3-5.3
		C188,108.2,186.8,105,186.6,104.4L186.6,104.4z M211.3,116c0.5-1.1,0.5-2.4,0-3.5c-0.7-2.4-3.3-3.8-5.7-3c-0.1,0-0.2,0.1-0.3,0.1
		c-1.4,0.5-2.6,1.5-3.4,2.8c-0.5,1.3-0.5,2.7,0.1,4c0.9,2.4,3.3,3.3,6,2.3C209.4,118.2,210.6,117.3,211.3,116L211.3,116z
		 M201.9,131.2c1-3.6-0.4-8.2-1.6-11.5c0,0-8.4-14.7-8.2-28.8c0-1.9-5.8-1.5-6.3,0.1c-0.2,0.7,1.3,3.5,0.4,3.8
		c-1.5,0.6-3.9-3.1-10.6-0.6c-4.1,1.6-12.8,5-7.5,19.5c5,13.8,16,15.1,22.4,6.6c2.1-2.8,2.4-3.3,4.7,0.7c4.3,7.4,1.3,12.1-2.3,13.8
		c-13.1,5.9-15-1.2-18-5.2c-1.1-1.4-9-2.1-6.7,1.1c4.6,6.7,7.6,8.4,9.6,9.4c4.7,2.2,10.1,1.1,14.3-0.4
		C198.4,137.5,201.1,134.1,201.9,131.2L201.9,131.2z M164.7,126.5c6.9-9.7-2-30.6-21.2-23.6c-17.3,6.3-11.4,25.2-4.3,28.7
		c4.6,2.3,1.5,3.3-1,4.1c-7.2,2.1-6-0.7-9-11c-2.9-10-3.2-13.9-10.4-13.3s-9.3,6.5-12.3,7.3s-1.4-3.4-6.6-0.4
		c-5.4,3.2,9.5,24.9,8.9,27.7c-1,4.5-16.4-3-18.5-8.1s8-13.9,6.8-15.9s-7.7-0.5-9.8,5c-4.1,10.8-7.5,10.9-9,5.3
		c0,0-1.4-9.3-2.4-12.4c-1.3-4.1-11-1.2-8.1,4.2c0,0,11.7,15.9,13,34.3c0.3,3.8,9.1,2.5,8.2-2.1S81.6,143.7,85,143s12.1,12,17.7,11
		s9.3-2.2,11.7-4.6c4.6-4.7-5.6-14.1-7.1-21.9s11.1-13,13.8-5.9c2.8,7.1,3.7,15.9,5.2,18s4.1,5.2,15.8,1.1
		C157.9,135.3,160.1,132.9,164.7,126.5L164.7,126.5z M224.7,98.2c8.3,30.2-23.9,65.3-69.1,77.7c-5.3,1.5-10.8,2.6-16.3,3.4
		c-2.8,16.8-18.5,42.8-44.6,42c12.8-7.4,22.4-26.8,22.1-41.1c-29-1.8-52.1-15.2-58-36.4c-8.3-30.2,21.6-64.7,66.8-77.1
		S216.4,68.1,224.7,98.2L224.7,98.2z"/>
</g>
</svg>
